<svg xmlns="http://www.w3.org/2000/svg" width="38.77" height="36.026" viewBox="0 0 38.77 36.026">
  <g id="Group_51" data-name="Group 51" transform="translate(-4922.892 -730.613)">
    <path id="Path_50" data-name="Path 50" d="M4959.293,731.113l-14.755,10.946,2.744-6.451Z" fill="#e17726" stroke="#e17726" stroke-linecap="round" stroke-linejoin="round" stroke-width="1"/>
    <g id="Group_46" data-name="Group 46">
      <path id="Path_51" data-name="Path 51" d="M4925.26,731.113l14.623,11.048-2.612-6.553Z" fill="#e27625" stroke="#e27625" stroke-linecap="round" stroke-linejoin="round" stroke-width="1"/>
      <path id="Path_52" data-name="Path 52" d="M4953.981,756.492l-3.926,6.013,8.406,2.32,2.408-8.2Z" fill="#e27625" stroke="#e27625" stroke-linecap="round" stroke-linejoin="round" stroke-width="1"/>
      <path id="Path_53" data-name="Path 53" d="M4923.7,756.623l2.393,8.2,8.392-2.32-3.911-6.013Z" fill="#e27625" stroke="#e27625" stroke-linecap="round" stroke-linejoin="round" stroke-width="1"/>
      <path id="Path_54" data-name="Path 54" d="M4934.031,746.334l-2.335,3.532,8.318.379-.277-8.975Z" fill="#e27625" stroke="#e27625" stroke-linecap="round" stroke-linejoin="round" stroke-width="1"/>
      <path id="Path_55" data-name="Path 55" d="M4950.522,746.334l-5.794-5.166-.19,9.078,8.319-.379Z" fill="#e27625" stroke="#e27625" stroke-linecap="round" stroke-linejoin="round" stroke-width="1"/>
      <path id="Path_56" data-name="Path 56" d="M4934.483,762.5l5.035-2.437-4.334-3.386Z" fill="#e27625" stroke="#e27625" stroke-linecap="round" stroke-linejoin="round" stroke-width="1"/>
      <path id="Path_57" data-name="Path 57" d="M4945.035,760.067l5.02,2.437-.686-5.823Z" fill="#e27625" stroke="#e27625" stroke-linecap="round" stroke-linejoin="round" stroke-width="1"/>
    </g>
    <g id="Group_47" data-name="Group 47">
      <path id="Path_58" data-name="Path 58" d="M4950.055,762.5l-5.02-2.437.409,3.269-.044,1.386Z" fill="#d5bfb2" stroke="#d5bfb2" stroke-linecap="round" stroke-linejoin="round" stroke-width="1"/>
      <path id="Path_59" data-name="Path 59" d="M4934.483,762.5l4.67,2.218-.029-1.386.394-3.269Z" fill="#d5bfb2" stroke="#d5bfb2" stroke-linecap="round" stroke-linejoin="round" stroke-width="1"/>
    </g>
    <path id="Path_60" data-name="Path 60" d="M4939.241,754.521l-4.174-1.226,2.948-1.357Z" fill="#233447" stroke="#233447" stroke-linecap="round" stroke-linejoin="round" stroke-width="1"/>
    <path id="Path_61" data-name="Path 61" d="M4945.313,754.521l1.226-2.583,2.963,1.357Z" fill="#233447" stroke="#233447" stroke-linecap="round" stroke-linejoin="round" stroke-width="1"/>
    <g id="Group_48" data-name="Group 48">
      <path id="Path_62" data-name="Path 62" d="M4934.483,762.5l.73-6.013-4.641.131Z" fill="#cc6228" stroke="#cc6228" stroke-linecap="round" stroke-linejoin="round" stroke-width="1"/>
      <path id="Path_63" data-name="Path 63" d="M4949.34,756.492l.715,6.013,3.926-5.881Z" fill="#cc6228" stroke="#cc6228" stroke-linecap="round" stroke-linejoin="round" stroke-width="1"/>
      <path id="Path_64" data-name="Path 64" d="M4952.857,749.866l-8.319.379.774,4.276,1.226-2.583,2.963,1.357Z" fill="#cc6228" stroke="#cc6228" stroke-linecap="round" stroke-linejoin="round" stroke-width="1"/>
      <path id="Path_65" data-name="Path 65" d="M4935.067,753.3l2.948-1.357,1.226,2.583.773-4.276-8.318-.379Z" fill="#cc6228" stroke="#cc6228" stroke-linecap="round" stroke-linejoin="round" stroke-width="1"/>
    </g>
    <g id="Group_49" data-name="Group 49">
      <path id="Path_66" data-name="Path 66" d="M4931.7,749.866l3.488,6.815-.117-3.386Z" fill="#e27525" stroke="#e27525" stroke-linecap="round" stroke-linejoin="round" stroke-width="1"/>
      <path id="Path_67" data-name="Path 67" d="M4949.5,753.3l-.131,3.386,3.488-6.815Z" fill="#e27525" stroke="#e27525" stroke-linecap="round" stroke-linejoin="round" stroke-width="1"/>
      <path id="Path_68" data-name="Path 68" d="M4940.015,750.245l-.773,4.276.978,5.05.219-6.655Z" fill="#e27525" stroke="#e27525" stroke-linecap="round" stroke-linejoin="round" stroke-width="1"/>
      <path id="Path_69" data-name="Path 69" d="M4944.539,750.245l-.408,2.656.2,6.669.978-5.05Z" fill="#e27525" stroke="#e27525" stroke-linecap="round" stroke-linejoin="round" stroke-width="1"/>
    </g>
    <path id="Path_70" data-name="Path 70" d="M4945.313,754.521l-.978,5.05.7.5,4.334-3.386.131-3.386Z" fill="#f5841f" stroke="#f5841f" stroke-linecap="round" stroke-linejoin="round" stroke-width="1"/>
    <path id="Path_71" data-name="Path 71" d="M4935.067,753.3l.117,3.386,4.334,3.386.7-.5-.978-5.05Z" fill="#f5841f" stroke="#f5841f" stroke-linecap="round" stroke-linejoin="round" stroke-width="1"/>
    <path id="Path_72" data-name="Path 72" d="M4945.4,764.723l.044-1.386-.38-.321h-5.575l-.365.321.029,1.386-4.67-2.218,1.635,1.343,3.313,2.291h5.677l3.328-2.291,1.62-1.343Z" fill="#c0ac9d" stroke="#c0ac9d" stroke-linecap="round" stroke-linejoin="round" stroke-width="1"/>
    <path id="Path_73" data-name="Path 73" d="M4945.035,760.067l-.7-.5h-4.116l-.7.5-.394,3.269.365-.321h5.575l.38.321Z" fill="#161616" stroke="#161616" stroke-linecap="round" stroke-linejoin="round" stroke-width="1"/>
    <g id="Group_50" data-name="Group 50">
      <path id="Path_74" data-name="Path 74" d="M4959.921,742.773l1.241-6.042-1.868-5.619-14.258,10.581,5.487,4.641,7.75,2.262,1.708-2-.745-.54,1.182-1.08-.9-.7,1.182-.9Z" fill="#763e1a" stroke="#763e1a" stroke-linecap="round" stroke-linejoin="round" stroke-width="1"/>
      <path id="Path_75" data-name="Path 75" d="M4923.392,736.731l1.255,6.042-.8.6,1.2.9-.9.7,1.182,1.08-.744.54,1.708,2,7.75-2.262,5.487-4.641-14.258-10.581Z" fill="#763e1a" stroke="#763e1a" stroke-linecap="round" stroke-linejoin="round" stroke-width="1"/>
    </g>
    <path id="Path_76" data-name="Path 76" d="M4958.272,748.6l-7.75-2.262,2.335,3.532-3.488,6.815,4.611-.058h6.889Z" fill="#f5841f" stroke="#f5841f" stroke-linecap="round" stroke-linejoin="round" stroke-width="1"/>
    <path id="Path_77" data-name="Path 77" d="M4934.031,746.334l-7.75,2.262-2.583,8.027h6.874l4.612.058-3.488-6.815Z" fill="#f5841f" stroke="#f5841f" stroke-linecap="round" stroke-linejoin="round" stroke-width="1"/>
    <path id="Path_78" data-name="Path 78" d="M4944.539,750.245l.5-8.552,2.248-6.086h-10.012l2.248,6.086.5,8.552.19,2.685.014,6.64h4.116l.015-6.64Z" fill="#f5841f" stroke="#f5841f" stroke-linecap="round" stroke-linejoin="round" stroke-width="1"/>
  </g>
</svg>
